<svg xmlns="http://www.w3.org/2000/svg" width="33" height="32" viewBox="0 0 33 32"><path fill="#F4BF75" fill-rule="evenodd" d="M22.758 13.702c-.035-.21.781.197-.407-1.123l.407 1.123zm1.431 1.175c-.034-.21-.65-.978-1.838-2.298-.022-.257.4-.63 1.257-1.11l2.426-2.141c.54-.7.863-1.822.966-3.365l-.031-.36c-.094-1.088-.882-1.966-2.36-2.644-.876-.595-2.445-.912-4.718-.959-1.882.16-4.34.83-7.363 2.004a28.605 28.605 0 0 1-2.841 1.8l.015.187a.75.75 0 0 0 .285-.112c.122-.01.187.047.2.156l.187-.106.094-.003.003.087c.007.088-.653.606-1.985 1.55l.103.166-.093.006-.204-.072c.007.056-.09.094-.284.11l.012.103.222.241a.792.792 0 0 1-.3-.06c-.431.038-.853.352-1.269.938l.106.166c.36-.332.572-.498.632-.504l.022.272c-.06.004-.157.044-.282.11l.229.345a7.5 7.5 0 0 1 1.444-1.216c.26.065.397.15.403.241l.2-.019c1.429-1.06 2.842-1.825 4.243-2.298l.015.188c-.26.389-.437.59-.531.599a.59.59 0 0 0 .137.351c.022.238-.616 1.85-1.904 4.826-2.929 6.92-5.386 12.04-7.387 15.35a.665.665 0 0 0 .116.267c.494-.116.803-.238.934-.354l.107-.012.015.188.185-.016.187-.107c.007.057.07.085.194.073l.019.188c.016.185-.09.464-.313.846-.2.226-.412.703-.64 1.433L4.81 30l.181-.019c.797-.893 1.4-1.768 1.816-2.627 2.326-.68 4.096-1.352 5.328-2.013 1.234-.104 2.175-.436 2.816-.972l-.009-.1-.466.137-.106.013-.01-.1c.907-.138 1.535-.34 1.882-.618 1.767-1.364 3.102-2.333 4.005-2.904 1.854-1.367 3.06-2.7 3.611-3.991l.331-1.929zM7.8 8.528l-.094.01-.016-.264.381-.05.007.135c-.063.01-.157.06-.279.17zM5.931 27.144c-.222-.098-.422-.138-.59-.12l-.026-.272c-.01-.107.053-.18.185-.204.122-.013.193.075.203.254.322-.395.5-.596.531-.602l.207.084c-.066.555-.238.838-.51.86zm19.94-20.92c-.094.012-.282-.283-.554-.866l-.016-.172c.179-.016.36.272.554.868l.015.17zm-.266-2.07l-.075.182-2.708-1.132c1.804.06 2.736.376 2.783.95zM14.173 14.09l-.385.05-.015-.263.384-.05.016.263zm-.313-6.007l.097-.003.022.273c-.087.003-.206.137-.35.391l-.016-.188c.172-.203.26-.36.247-.473zm-.666 1.9l.085.364-.232.003-.08-.36.227-.007zm-.556.68l.184-.018c-.018.3-.1.46-.25.473l-.094.006c.116-.2.172-.357.16-.46zm-.316.944l.106-.012.007.087-.172.292-.185.016-.003-.091c.181-.016.263-.11.247-.292zm-.184.85l-.094.455-.156.006-.063-.452.313-.01zm-3.233 8.858c-.122.62-.253.94-.394.947l-.003-.088c-.034-.307.1-.593.397-.86zm-.438 1.235l.013.1c.019.132-.081.21-.3.217l-.01-.097c-.018-.116.079-.189.297-.22zm-.3 2.584l.291-.038.01.138c-.072.01-.166.06-.282.154l-.181.022c-.013-.132.047-.23.162-.276zm8.197-2.55c-1.616.803-2.57 1.346-2.85 1.631-1.751.608-2.62.988-2.605 1.138-1.554.615-2.58 1.073-3.07 1.352-.119.012-.284-.032-.506-.132-.025-.317.118-.57.422-.778.272-.022.531.016.781.123.288-.148.791-.317 1.507-.496l-.019-.185-.575.047c.072-.1.625-.36 1.666-.784l.288-.025.006.088c-.494.047-.766.188-.825.448.01.12.078.167.2.157.372-.232.553-.373.547-.41.704-.135 2.648-1.158 5.83-3.06l.016.169c.006.087-.265.32-.813.718zm-4.883 1.612a1.876 1.876 0 0 0 1.194-.555c.135-.012.207.041.213.157-.228.022-.666.21-1.3.574l-.097.006-.01-.182zm7.882-6.07l-2.445 1.944c-1.817 1.195-2.789 1.797-2.936 1.803-2.888 1.596-4.69 2.424-5.386 2.483l-.104.013c.088-.326 1.37-2.967 3.865-7.93 1.094-.097 2.823-.605 5.177-1.54l.575-.05c1.191-.103 2.082.129 2.67.684l.031.36c-.438 1.27-.922 2.017-1.447 2.233zm-4.774-2.64l.39-.085.007.226-.394.088-.003-.23zm5.518-.991l.29-.028c.266.128.404.238.413.338l.006.088c-.253.022-.49-.11-.71-.398zm.781-4.459c-.253.304-.95.825-2.091 1.559-.379.034-1.78.577-4.205 1.646a.734.734 0 0 0-.388-.07L14.19 13c-.029-.348.128-.787.472-1.323.187-.997.39-1.568.619-1.709l2.02-4.559c-.02-.282.412-.498 1.297-.649l.287-.028.022.26a41.33 41.33 0 0 1 1.623-.229c1.607-.138 2.441.192 2.507.972l.184-.015-.037-.461.197-.016c.472.26.725.577.76.947.021.257-.116.574-.41.953-.122.01-.194-.078-.206-.257l-.197.019-.047.555c-.813 1.22-1.407 1.847-1.77 1.881-.334.461-.537.69-.622.696zm1.241 3.192c-.165-.113-.3-.163-.4-.157l-.019-.272.182-.016.403.238c.016.129-.038.195-.166.207zm1.285 1.527c.181.072.29.15.313.223l-.09.022.005.006a.163.163 0 0 0-.056.01l-.137.106-.035-.367zm.125.953l-.019-.178.291-.135.022.175-.294.138z"/></svg>