<svg id="Layer_1" data-name="Layer 1" xmlns="http://www.w3.org/2000/svg" viewBox="0 0 24 24"><defs><style>.cls-1{fill:none}.cls-2{fill:#90A4AE}.cls-3{fill:#90a959}</style></defs><title>folder_images</title><path class="cls-1" d="M20.8 20.8h-3.68l-.06.08-.06-.08h-3.24l-.87 1.12h9.72l-1-1.29a2.33 2.33 0 0 1-.81.17z"/><path class="cls-2" d="M12.89 11.5h9.72a1.59 1.59 0 0 1 .39.06V7.4a2.22 2.22 0 0 0-2.2-2.2H12L9.8 3H3.2A2.22 2.22 0 0 0 1 5.2v13.6a2 2 0 0 0 2.2 2h8.3v-7.91a1.4 1.4 0 0 1 1.39-1.39z"/><path class="cls-3" d="M23 11.56a1.59 1.59 0 0 0-.39-.06h-9.72a1.4 1.4 0 0 0-1.39 1.39v9.72A1.4 1.4 0 0 0 12.89 24h9.72A1.39 1.39 0 0 0 24 22.61v-9.72a1.4 1.4 0 0 0-1-1.33zM12.89 21.92l.87-1.12 1.56-2 1.67 2 .07.08.06-.08 2.37-3.05 2.15 2.88 1 1.29z"/></svg>