<svg xmlns="http://www.w3.org/2000/svg" width="32" height="32" viewBox="0 0 32 32"><path fill="#B8E15E" fill-rule="evenodd" d="M10 6.308l1.94-.222 4.257-.652c2.838-.434 4.257-.781 4.257-1.041 0-.26.647-.724 1.94-1.393v4.947l-1.55 1.185L10 11.252V6.307v.002zm.053 6.586l1.94-.221 4.257-.652c2.838-.434 4.257-.781 4.257-1.041 0-.26.647-.716 1.94-1.367v4.947l-1.55 1.185-10.844 2.096v-4.947zm0 6.614l1.94-.222 4.257-.652c2.838-.434 4.257-.781 4.257-1.041 0-.26.647-.724 1.94-1.393v4.947l-1.55 1.185-10.844 2.121v-4.947.002z"/></svg>