<svg xmlns="http://www.w3.org/2000/svg" xmlns:xlink="http://www.w3.org/1999/xlink" width="32" height="32"><defs><path id="a" d="M0 0h23.998v16.944H0z"/></defs><g fill="none" fill-rule="evenodd" transform="translate(4 6)"><mask id="b" fill="#fff"><use xlink:href="#a"/></mask><path fill="#D14748" d="M22.625 7.731c-.159.036-2.76.702-2.76.702l-2.127-3.01c-.06-.087-.109-.174.04-.195.149-.02 2.566-.47 2.675-.496.11-.026.204-.057.338.133.134.189 1.973 2.59 2.043 2.682.07.092-.05.149-.209.184m-.454 5.188c.065.105.13.172-.074.248-.204.077-6.887 2.403-7.016 2.46-.13.058-.232.077-.4-.172-.167-.249-2.34-4.13-2.34-4.13l7.083-1.9c.176-.058.232-.096.343.086.112.182 2.34 3.302 2.404 3.408M10.699 10.7c-.087.019-4.156 1.023-4.373 1.075-.217.05-.217.025-.242-.052-.025-.076-4.838-10.312-4.904-10.44-.067-.128-.064-.23 0-.23.063 0 3.842-.348 3.976-.355.134-.007.12.022.169.109l5.424 9.656c.093.166.037.218-.05.237m13.207-2.785c-.16-.185-2.356-3.02-2.743-3.502-.387-.481-.576-.394-.814-.358-.238.036-3.018.517-3.34.573-.323.056-.527.19-.328.476.177.255 2.004 2.927 2.406 3.516l-7.264 1.794L6.045.453c-.23-.352-.278-.475-.801-.45C4.72.028.712.371.426.396.141.42-.173.55.113 1.246c.285.696 4.838 10.814 4.965 11.109.127.294.457.772 1.23.58.79-.195 3.535-.934 5.035-1.34.792 1.48 2.409 4.483 2.707 4.913.4.574.674.48 1.287.288.478-.15 7.484-2.748 7.8-2.882.315-.134.51-.23.296-.555-.157-.24-2.005-2.793-2.973-4.129l3.272-.9c.293-.081.333-.23.174-.414" mask="url(#b)"/></g></svg>