<svg id="Layer_1" data-name="Layer 1" xmlns="http://www.w3.org/2000/svg" viewBox="0 0 24 24"><defs><style>.cls-2{fill:#aa759f}</style></defs><path d="M20.8 5.25H12L9.8 3H3.2A2.23 2.23 0 0 0 1 5.25v13.5A2.23 2.23 0 0 0 3.2 21h17.6a2.23 2.23 0 0 0 2.2-2.25V7.5a2.23 2.23 0 0 0-2.2-2.25zm0 13.5H3.2V7.5h17.6z" fill="#AB47BC"/><path class="cls-2" d="M18.64 19.51l-1.37 1.37L13 16.6l4.27-4.27 1.37 1.37-2.9 2.9 2.9 2.91z"/><path class="cls-2" d="M19.73 24l-1.37-1.37 2.9-2.91-2.9-2.9 1.37-1.37L24 19.72 19.73 24z"/></svg>