<svg data-name="Layer 1" xmlns="http://www.w3.org/2000/svg" viewBox="0 0 24 24"><path d="M20.8 5.2H12L9.8 3H3.2A2.22 2.22 0 0 0 1 5.2v13.6a2 2 0 0 0 2.2 2h11.61l-2-2a.71.71 0 0 1 0-1l3.42-3.43.5-.51 1-1a.71.71 0 0 1 .53-.22.65.65 0 0 1 .51.22L23 17V7.4a2.22 2.22 0 0 0-2.2-2.2z" fill="#4A616C"/><path d="M23.78 17.78L23 17l-4.21-4.2a.65.65 0 0 0-.51-.22.71.71 0 0 0-.53.22l-1 1L18 15.14a.83.83 0 0 1 .47 0 1 1 0 0 1 .44.24.85.85 0 0 1 .22.42.9.9 0 0 1 0 .49l1.27 1.26a.89.89 0 0 1 .46 0 .8.8 0 0 1 .44.24.88.88 0 0 1 0 1.23.84.84 0 0 1-.62.25.81.81 0 0 1-.61-.25.83.83 0 0 1-.24-.45.86.86 0 0 1 .05-.5l-1.18-1.23V20l.12.07.12.09a.82.82 0 0 1 .25.61v.08a.84.84 0 0 1-.24.54.85.85 0 0 1-1.24 0 .85.85 0 0 1-.25-.54v-.08a.8.8 0 0 1 .26-.61l.14-.11.15-.08v-3.18l-.15-.08-.14-.11a.84.84 0 0 1-.25-.46.81.81 0 0 1 .07-.51l-1.3-1.29-3.44 3.43a.71.71 0 0 0 0 1l2 2 3 3a.67.67 0 0 0 .52.22.73.73 0 0 0 .53-.22l5-5a.7.7 0 0 0 .22-.52.73.73 0 0 0-.29-.47z" fill="#ac4142"/></svg>