<svg id="Layer_1" data-name="Layer 1" xmlns="http://www.w3.org/2000/svg" viewBox="0 0 24 24"><defs><style>.cls-1{fill:none}.cls-3{fill:#c3e88d}</style></defs><path class="cls-1" d="M3.2 7.5v11.25h8.3V14a1.09 1.09 0 0 1 .5-1l5.17-3a1.11 1.11 0 0 1 1.08 0l2.51 1.45v-4zM19.14 15.08c-1.19 0-1.33.41-1.33.73s.16.48 1.77.69a7.21 7.21 0 0 1 1.22.25v-.65a.22.22 0 0 1-.05-.08c-.16-.71-.57-.94-1.61-.94zM14.68 21h-.44a.82.82 0 0 0 .44 0z"/><path class="cls-1" d="M16.61 18a.14.14 0 0 1 .15-.15h.66a.17.17 0 0 1 .16.13 1 1 0 0 0 .44.78h2.57a.67.67 0 0 0 .21-.2v-.68c-.16-.19-.58-.34-1.72-.45-1.42-.14-2.3-.47-2.3-1.59s.89-1.66 2.36-1.66a3.52 3.52 0 0 1 1.66.33v-1.95l-3-1.71a.15.15 0 0 0-.16 0l-5.16 3a.15.15 0 0 0-.08.14v4.78h2.73v-4.29a.16.16 0 0 1 .16-.15H16a.15.15 0 0 1 .15.15v4.27h.65a1.89 1.89 0 0 1-.19-.75z"/><path d="M11.5 19.93v-1.18H3.2V7.5h17.6v4l2.2 1.26V7.5a2.23 2.23 0 0 0-2.2-2.25H12L9.8 3H3.2A2.23 2.23 0 0 0 1 5.25v13.5A2.23 2.23 0 0 0 3.2 21h9.06l-.26-.13a1.09 1.09 0 0 1-.5-.94z" fill="#616161"/><path class="cls-3" d="M23.46 13l-.46-.24-2.2-1.27L18.29 10a1.11 1.11 0 0 0-1.08 0L12 13a1.09 1.09 0 0 0-.54.94v6a1.09 1.09 0 0 0 .54.94l.22.13 1.14.65a2.25 2.25 0 0 0 1.18.33A1.36 1.36 0 0 0 16 21a2.1 2.1 0 0 0 .1-.64v-5.88a.15.15 0 0 0-.15-.15h-.65a.16.16 0 0 0-.16.15v5.88a.67.67 0 0 1-.48.64.82.82 0 0 1-.44 0 1.45 1.45 0 0 1-.31-.11l-1.42-.81a.19.19 0 0 1-.08-.15V14a.15.15 0 0 1 .08-.14l5.16-3a.15.15 0 0 1 .16 0l3 1.71L23 13.83a.17.17 0 0 1 .07.13v6a.19.19 0 0 1-.08.15l-5.16 3a.22.22 0 0 1-.16 0l-1.31-.8a.17.17 0 0 0-.14 0 2.77 2.77 0 0 1-.78.35c-.09 0-.22.08.05.22l1.72 1a1 1 0 0 0 .54.15 1 1 0 0 0 .54-.15l5.17-3a1.09 1.09 0 0 0 .54-.94V14a1.09 1.09 0 0 0-.54-1z"/><path class="cls-3" d="M16.78 15.83c0 1.12.88 1.45 2.3 1.59 1.14.11 1.56.26 1.72.45a.42.42 0 0 1 .1.3.8.8 0 0 1-.1.38.67.67 0 0 1-.21.2 2.36 2.36 0 0 1-1.24.24 2.6 2.6 0 0 1-1.35-.24 1 1 0 0 1-.44-.78.17.17 0 0 0-.16-.13h-.66a.14.14 0 0 0-.15.15 1.89 1.89 0 0 0 .16.76c.27.62 1 1.15 2.58 1.15s2.57-.65 2.57-1.77a1.31 1.31 0 0 0-1.12-1.38 7.21 7.21 0 0 0-1.22-.25c-1.61-.21-1.77-.32-1.77-.69s.14-.73 1.33-.73c1 0 1.45.23 1.61.94a.22.22 0 0 0 .05.08.18.18 0 0 0 .1 0h.67a.11.11 0 0 0 .1-.05.12.12 0 0 0 0-.11 1.7 1.7 0 0 0-.91-1.48 3.52 3.52 0 0 0-1.66-.33c-1.41.04-2.3.66-2.3 1.7z"/></svg>