<svg id="Layer_1" data-name="Layer 1" xmlns="http://www.w3.org/2000/svg" viewBox="0 0 24 24"><defs><style>.cls-1{fill:#90A4AE}.cls-3{fill:#2ecc71}</style></defs><rect class="cls-1" x="15.31" y="14.91" width="5.69"/><path class="cls-1" d="M20.8 5.2H12L9.8 3H3.2A2.22 2.22 0 0 0 1 5.2v13.6a2 2 0 0 0 2.2 2H13v-4.89h1v-1h1v-1h1v-1h7V7.4a2.22 2.22 0 0 0-2.2-2.2z"/><path fill="none" d="M14 20.8v2.11h5v-6h-5v3.89z"/><path class="cls-3" d="M13 15.91v8h7v-8zm6 4.89v2.11h-5v-6h5z"/><path class="cls-3" d="M15 13.91v1h6v7h1v-8h-7z"/><path class="cls-3" d="M17 11.91v1h6v7h1v-8h-7z"/></svg>