<svg data-name="Layer 1" xmlns="http://www.w3.org/2000/svg" viewBox="0 0 24 24"><path d="M14.27 18.75H3.2V7.5h17.6v4.82a5 5 0 0 1 2.2 1.9V7.5a2.23 2.23 0 0 0-2.2-2.25H12L9.8 3H3.2A2.23 2.23 0 0 0 1 5.25v13.5A2.23 2.23 0 0 0 3.2 21h13a5 5 0 0 1-1.93-2.25z" fill="#AB47BC"/><path d="M18.77 12.93v1.87l2.5-2.5-2.5-2.5v1.88a5 5 0 0 0-5 5 4.94 4.94 0 0 0 .78 2.66l.91-.91a3.69 3.69 0 0 1-.46-1.75 3.75 3.75 0 0 1 3.77-3.75zM23 14l-.92.92a3.66 3.66 0 0 1 .44 1.75 3.76 3.76 0 0 1-3.75 3.75v-1.87l-2.5 2.5 2.5 2.5v-1.87A5 5 0 0 0 23 14z" fill="#f4bf75"/></svg>