<svg id="Layer_1" data-name="Layer 1" xmlns="http://www.w3.org/2000/svg" viewBox="0 0 24 24"><defs><style>.cls-1{fill:#4a616c}</style></defs><path class="cls-1" d="M14.52 20.81a3.47 3.47 0 0 1-.06-.64v-.64h-1.28v-1.28h1.28v-.64a3.39 3.39 0 0 1 .06-.64h-1.34V15.7H15a4 4 0 0 1 1.16-1.26l-1-1 .9-.9 1.39 1.39a3.82 3.82 0 0 1 .9-.11 4 4 0 0 1 .91.11l1.38-1.39.9.9-1 1a3.91 3.91 0 0 1 1.17 1.26H23V7.4a2.22 2.22 0 0 0-2.2-2.2H12L9.8 3H3.2A2.22 2.22 0 0 0 1 5.2v13.6a2 2 0 0 0 2.2 2h11.32z"/><path class="cls-1" d="M20.8 5.2H12L9.8 3H3.2A2.22 2.22 0 0 0 1 5.2v13.6a2 2 0 0 0 2.2 2H23V7.4a2.22 2.22 0 0 0-2.2-2.2z"/><path d="M22.74 13.51h-2.52v-1.26A1.25 1.25 0 0 0 19 11h-2.56a1.25 1.25 0 0 0-1.26 1.26v1.26h-2.51a1.25 1.25 0 0 0-1.26 1.26v6.92a1.26 1.26 0 0 0 1.26 1.3h10.07A1.26 1.26 0 0 0 24 21.7v-6.93a1.25 1.25 0 0 0-1.26-1.26zm-3.78 0h-2.52v-1.26H19z" fill="#d28445"/></svg>