<svg data-name="Layer 1" xmlns="http://www.w3.org/2000/svg" viewBox="0 0 24 24"><path d="M23 12.25V7.5a2.23 2.23 0 0 0-2.2-2.25H12L9.8 3H3.2A2.23 2.23 0 0 0 1 5.25v13.5A2.23 2.23 0 0 0 3.2 21h10v-.18h1.33a4.46 4.46 0 0 1 0-.63v-.64h-1.35v-.78H3.2V7.5h17.6v8.71H23v-4z" fill="#AB47BC"/><path d="M22.74 13.51h-2.52v-1.26A1.25 1.25 0 0 0 19 11h-2.56a1.25 1.25 0 0 0-1.26 1.26v1.26h-2.51a1.25 1.25 0 0 0-1.26 1.26v6.92a1.26 1.26 0 0 0 1.26 1.3h10.07A1.26 1.26 0 0 0 24 21.7v-6.93a1.25 1.25 0 0 0-1.26-1.26zm-3.78 0h-2.52v-1.26H19z" fill="#d28445"/></svg>