<svg id="Layer_1" data-name="Layer 1" xmlns="http://www.w3.org/2000/svg" viewBox="0 0 24 24"><defs><style>.cls-1{fill:none}</style></defs><path class="cls-1" d="M19.49 17.75l-.78 1h1.53l-.75-1zM3.2 7.5v11.25h8.3v-5.86a1.4 1.4 0 0 1 1.39-1.39h7.91v-4zM20.8 21h-7.2l-.71.92h9.72l-.86-1.15a2.18 2.18 0 0 1-.95.23z"/><path d="M3.2 18.75V7.5h17.6v4h1.81a1.59 1.59 0 0 1 .39.06V7.5a2.23 2.23 0 0 0-2.2-2.25H12L9.8 3H3.2A2.23 2.23 0 0 0 1 5.25v13.5A2.23 2.23 0 0 0 3.2 21h8.3v-2.25z" fill="#388E3C"/><path d="M23 11.56a1.59 1.59 0 0 0-.39-.06h-9.72a1.4 1.4 0 0 0-1.39 1.39v9.72A1.4 1.4 0 0 0 12.89 24h9.72A1.39 1.39 0 0 0 24 22.61v-9.72a1.4 1.4 0 0 0-1-1.33zM12.89 21.92l.71-.92 1.72-2.21 1.74 2.09 1.65-2.13.78-1 .75 1 1.51 2 .86 1.15z" fill="#90a959"/></svg>