<svg id="Layer_1" data-name="Layer 1" xmlns="http://www.w3.org/2000/svg" viewBox="0 0 24 24"><defs><style>.cls-1{fill:#424242}</style></defs><path class="cls-1" d="M14.52 20.81a3.47 3.47 0 0 1-.06-.64v-.64h-1.28v-1.28h1.28v-.64a3.39 3.39 0 0 1 .06-.64h-1.34V15.7H15a4 4 0 0 1 1.16-1.26l-1-1 .9-.9 1.39 1.39a3.82 3.82 0 0 1 .9-.11 4 4 0 0 1 .91.11l1.38-1.39.9.9-1 1a3.91 3.91 0 0 1 1.17 1.26H23V7.4a2.22 2.22 0 0 0-2.2-2.2H12L9.8 3H3.2A2.22 2.22 0 0 0 1 5.2v13.6a2 2 0 0 0 2.2 2h11.32z"/><path fill="none" d="M17.01 20.8h2.56v.01h-2.56z"/><path class="cls-1" d="M22.07 17a4.48 4.48 0 0 1 .05.64v.64H23V17zM14.46 19.53h-1.28v-1.28h1.28v-.64a3.39 3.39 0 0 1 .06-.64h-1.34V15.7H15a4 4 0 0 1 1.16-1.26l-1-1 .9-.9 1.39 1.39a3.82 3.82 0 0 1 .9-.11 4 4 0 0 1 .91.11l1.38-1.39.9.9-1 1a3.91 3.91 0 0 1 1.17 1.26H23V7.4a2.22 2.22 0 0 0-2.2-2.2H12L9.8 3H3.2A2.22 2.22 0 0 0 1 5.2v13.6a2 2 0 0 0 2.2 2h11.31a4.46 4.46 0 0 1 0-.63zM22.12 20.17v.18a2.15 2.15 0 0 0 .67-.82h-.66z"/><path d="M22.12 17.61a4.48 4.48 0 0 0-.05-.64h1.33V15.7h-1.79a3.91 3.91 0 0 0-1.17-1.26l1-1-.9-.9-1.34 1.35a4 4 0 0 0-.91-.11 3.82 3.82 0 0 0-.9.11L16 12.5l-.9.9 1 1a4 4 0 0 0-1.1 1.3h-1.82V17h1.34a3.39 3.39 0 0 0-.06.64v.64h-1.28v1.28h1.28v.64a4.46 4.46 0 0 0 0 .63h-1.28v1.26H15a3.83 3.83 0 0 0 6.64 0h1.76v-1.28h-1.33v-.46V19.53h1.33v-1.28h-1.28zM17 17h2.56v1.28H17zm0 3.84v-1.31h2.56v1.27H17z" fill="#f4bf75"/></svg>