<svg id="Layer_1" data-name="Layer 1" xmlns="http://www.w3.org/2000/svg" viewBox="0 0 24 24"><defs><style>.cls-1{fill:none}.cls-3{fill:#2ecc71}</style></defs><path class="cls-1" d="M14 20.8v2.11h5v-6h-5v3.89z"/><path class="cls-1" d="M3.2 7.5v11.25H13v-2.84h7v2.84h.8v-3.84H15v-1h5.8v-1H17v-1h3.8V7.5H3.2z"/><path class="cls-1" d="M14 16.91h5v1.84h-5zM14 21h5v1.91h-5z"/><path d="M13 18.75H3.2V7.5h17.6v4.41H23V7.5a2.23 2.23 0 0 0-2.2-2.25H12L9.8 3H3.2A2.23 2.23 0 0 0 1 5.25v13.5A2.23 2.23 0 0 0 3.2 21H13v-2.25z" fill="#E57373"/><path class="cls-3" d="M20 18.75v-2.84h-7v8h7v-5.16zm-1 4.16h-5v-6h5v6z"/><path class="cls-3" d="M22 13.91h-7v1h6v7h1v-8z"/><path class="cls-3" d="M23 11.91h-6v1h6v7h1v-8h-1z"/></svg>