<svg id="Layer_1" data-name="Layer 1" xmlns="http://www.w3.org/2000/svg" viewBox="0 0 24 24"><defs><style>.cls-1{fill:none}.cls-2{fill:#64FFDA}</style></defs><path class="cls-1" d="M17.7 21.34a.84.84 0 0 0 1.43-.34H17.5a.85.85 0 0 0 .2.34zM3.2 7.5v11.25h9.57a.69.69 0 0 1 0-1l3.42-3.43 1.3 1.29a.81.81 0 0 0-.07.51.84.84 0 0 0 .25.46l.14.11.15.08v2h.71v-1.93L19.89 18a.86.86 0 0 0-.05.5.63.63 0 0 0 .08.23h.88V17.5a.84.84 0 0 0-.39 0l-1.27-1.26a.9.9 0 0 0 0-.49.85.85 0 0 0-.22-.42 1 1 0 0 0-.44-.24.83.83 0 0 0-.47 0l-1.31-1.31 1-1a.71.71 0 0 1 .53-.22.65.65 0 0 1 .51.22l2 2V7.5z"/><path class="cls-2" d="M22.66 20l-.7.7a2.34 2.34 0 0 0 .7-.7zM12.8 18.8v-.05H3.2V7.5h17.6v7.31L23 17V7.5a2.23 2.23 0 0 0-2.2-2.25H12L9.8 3H3.2A2.23 2.23 0 0 0 1 5.25v13.5A2.23 2.23 0 0 0 3.2 21H15l-.2-.2z"/><path d="M24 18.31a.73.73 0 0 0-.22-.53L23 17l-2.2-2.2-2-2a.65.65 0 0 0-.51-.22.71.71 0 0 0-.53.22l-1 1L18 15.14a.83.83 0 0 1 .47 0 1 1 0 0 1 .44.24.85.85 0 0 1 .22.42.9.9 0 0 1 0 .49l1.27 1.26a.84.84 0 0 1 .39 0h.07a.8.8 0 0 1 .44.24.88.88 0 0 1 0 1.23.84.84 0 0 1-.62.25.81.81 0 0 1-.61-.25.82.82 0 0 1-.16-.22.63.63 0 0 1-.08-.23.86.86 0 0 1 .05-.5l-1.18-1.23V20l.12.07.12.09a.82.82 0 0 1 .25.61v.08a1.46 1.46 0 0 1-.05.2.84.84 0 0 1-1.43.34.85.85 0 0 1-.2-.34 1.46 1.46 0 0 1-.05-.2v-.08a.8.8 0 0 1 .26-.61l.14-.11.15-.08v-3.18l-.15-.08-.14-.11a.84.84 0 0 1-.25-.46.81.81 0 0 1 .07-.51l-1.3-1.29-3.44 3.43a.69.69 0 0 0 0 1v.05l2 2 .2.2 2.77 2.78a.67.67 0 0 0 .52.22.73.73 0 0 0 .53-.22L22 20.65l.7-.7 1.12-1.12a.7.7 0 0 0 .18-.52z" fill="#ac4142"/></svg>