<svg xmlns="http://www.w3.org/2000/svg" width="32" height="32"><g fill="none" fill-rule="evenodd"><path fill="#D14748" d="M5 4h23v23H5z"/><path fill="#FFF" d="M16.42 25l-2.074-3.818h-1.237V25H11V15h3.532c1.258 0 2.2.255 2.824.764.624.509.936 1.242.936 2.201 0 .677-.176 1.253-.529 1.727-.353.475-.841.808-1.465 1.001L18.793 25h-2.374zm-.251-6.946c0-.464-.148-.807-.443-1.027-.296-.22-.768-.33-1.416-.33H13.11v2.788h1.258c1.201 0 1.802-.477 1.802-1.43zM19.786 25V15h6.92v1.69h-4.81v2.402h4.375v1.69h-4.376v2.528H27V25h-7.214z"/></g></svg>