<svg xmlns="http://www.w3.org/2000/svg" width="33" height="32"><defs><linearGradient id="a" x1="26.825%" x2="67.576%" y1="48.223%" y2="55.339%"><stop offset="0%" stop-color="#FF6533"/><stop offset="15.7%" stop-color="#FF5633"/><stop offset="43.4%" stop-color="#FF4333"/><stop offset="71.4%" stop-color="#FF3733"/><stop offset="100%" stop-color="#F33"/></linearGradient><linearGradient id="b" x1="20.45%" x2="93.485%" y1="38.133%" y2="80.432%"><stop offset="0%" stop-color="#AC4142"/><stop offset="100%" stop-color="#D14748"/></linearGradient><linearGradient id="c" x1="32.299%" x2="45.564%" y1="39.503%" y2="48.92%"><stop offset="0%" stop-color="#FF6533"/><stop offset="15.7%" stop-color="#FF5633"/><stop offset="43.4%" stop-color="#FF4333"/><stop offset="71.4%" stop-color="#FF3733"/><stop offset="100%" stop-color="#F33"/></linearGradient><linearGradient id="d" x1="40.204%" x2="53.979%" y1="47.22%" y2="54.541%"><stop offset="0%" stop-color="#F4BF75"/><stop offset="100%" stop-color="#FB8840"/></linearGradient><linearGradient id="e" x1="55.227%" x2="40.93%" y1="5.891%" y2="128.024%"><stop offset="0%" stop-color="#FFF"/><stop offset="100%" stop-color="#FFF" stop-opacity="0"/></linearGradient></defs><g fill="none"><path fill="url(#a)" d="M18.14 6.047a8.703 8.703 0 0 0-1.166-4.365C15.002-.317 10.71-.78 9.646 1.672c-1.094 2.514 1.838 5.31 3.12 5.089 1.63-.284-.289-3.969-.289-3.969 2.496 4.63 1.92 3.213-2.591 7.465S.768 23.481.096 23.86a.55.55 0 0 1-.091.047h17.694a.415.415 0 0 0 .374-.6l-4.626-9.014a.41.41 0 0 1 .163-.543c2.706-1.531 4.53-4.404 4.53-7.702z" transform="translate(8.83 4.865)"/><path fill="url(#b)" d="M18.14 6.047a8.703 8.703 0 0 0-1.166-4.365C15.002-.317 10.71-.78 9.646 1.672c-1.094 2.514 1.838 5.31 3.12 5.089 1.63-.284-.289-3.969-.289-3.969 2.496 4.63 1.92 3.213-2.591 7.465S.768 23.481.096 23.86a.55.55 0 0 1-.091.047h17.694a.415.415 0 0 0 .374-.6l-4.626-9.014a.41.41 0 0 1 .163-.543c2.706-1.531 4.53-4.404 4.53-7.702z" transform="translate(8.83 4.865)"/><path fill="url(#c)" d="M2.924 26.722c.672-.378 5.279-9.354 9.79-13.606 4.51-4.252 5.086-2.834 2.591-7.464 0 0-9.55 13.18-13.004 19.7" transform="translate(6 2)"/><path fill="#D14748" d="M10.27 16.912c6.449-11.674 7.294-12.85 10.653-12.85 1.766 0 3.546.784 4.698 2.178a9.038 9.038 0 0 0-7.53-4.205H7.137a.415.415 0 0 0-.418.41v21.743c.653-1.658 1.761-4.03 3.551-7.276z"/><path fill="url(#d)" d="M12.714 13.116c-4.511 4.252-9.118 13.229-9.79 13.606-.671.378-1.8.426-2.399-.236-.638-.704-1.631-1.842 3.743-11.575 6.45-11.674 7.294-12.85 10.653-12.85 1.766 0 3.546.784 4.698 2.178.063.099.125.203.187.307-1.972-1.999-6.262-2.462-7.327-.01-1.094 2.514 1.838 5.31 3.119 5.088 1.632-.283-.288-3.968-.288-3.968 2.49 4.625 1.915 3.208-2.596 7.46z" transform="translate(6 2)"/><path fill="url(#e)" d="M4.796 15.431c6.45-11.674 7.294-12.85 10.653-12.85 1.454 0 2.918.534 4.031 1.497-1.152-1.294-2.86-2.017-4.559-2.017-3.359 0-4.203 1.176-10.653 12.85C-1.106 24.644-.113 25.782.525 26.486c.091.1.197.184.307.255-.561-.803-.81-2.669 3.964-11.31z" opacity=".3" transform="translate(6 2)"/></g></svg>