<svg id="Layer_1" data-name="Layer 1" xmlns="http://www.w3.org/2000/svg" viewBox="0 0 24 24"><defs><style>.cls-1{fill:none}.cls-2{fill:#00BCD4}.cls-3{fill:#ffcb6b}</style></defs><title>folder_vscode_open</title><path class="cls-1" d="M3.2 7.5v11.25h8.75l1.71-1.57-3.3-3.03 1.38-.8 3.35 2.52 5.71-5.25V7.5H3.2zM20.8 14.19l-3.97 2.99 2.09 1.57h1.88v-4.56zM15.09 18.5l-.33.25h.61l-.28-.25z"/><path class="cls-2" d="M12 18.75H3.2V7.5h17.6v3.12l.28-.26 1.92.93V7.5a2.23 2.23 0 0 0-2.2-2.25H12L9.8 3H3.2A2.23 2.23 0 0 0 1 5.25v13.5A2.23 2.23 0 0 0 3.2 21h8.51l-1.35-.79z"/><path class="cls-3" d="M23 11.29l-1.92-.93-.28.26-5.71 5.25-3.35-2.53-1.38.81 3.3 3-1.66 1.6-1.59 1.46 1.35.79 3-2.25.34-.25.28.25L17.81 21l3.27 3L24 22.58v-10.8zm-6.17 5.89l4-3 .28-.21v6.4l-2.16-1.63z"/></svg>